<svg width="160" height="159" viewBox="0 0 160 159" fill="none" xmlns="http://www.w3.org/2000/svg">
<path d="M80 -3.8147e-06C59.7297 -3.8147e-06 39.4595 7.7319 23.9957 23.1957C-6.93191 54.1233 -6.93191 104.272 23.9957 135.199C39.4595 150.668 59.7297 158.4 80 158.4C100.27 158.4 120.54 150.668 136.004 135.204C166.932 104.277 166.932 54.1282 136.004 23.2006C120.54 7.7319 100.27 -3.8147e-06 80 -3.8147e-06ZM132.505 131.705C118.476 145.728 99.8346 153.45 80 153.45C60.1653 153.45 41.5236 145.728 27.4953 131.705C-1.45721 102.752 -1.45721 55.6479 27.4953 26.7003C41.5236 12.672 60.1653 4.95 80 4.95C99.8346 4.95 118.476 12.672 132.505 26.6953C161.452 55.6479 161.452 102.752 132.505 131.705Z" fill="black"/>
<path d="M74.6216 36.3157L37.842 73.0952L41.3422 76.5954L78.1217 39.8158L74.6216 36.3157Z" fill="black"/>
<path d="M98.2116 35.4417L38.4886 95.1647L41.9887 98.6649L101.712 38.9419L98.2116 35.4417Z" fill="black"/>
<path d="M119.038 37.3403L37.4601 118.918L40.9602 122.418L122.538 40.8404L119.038 37.3403Z" fill="black"/>
<path d="M118.169 60.9286L61.012 118.086L64.5122 121.586L121.67 64.4288L118.169 60.9286Z" fill="black"/>
<path d="M118.941 82.8776L82.3607 119.458L85.8608 122.958L122.441 86.3777L118.941 82.8776Z" fill="black"/>
</svg>
